<mxfile host="app.diagrams.net" modified="2023-09-08T07:06:48.607Z" agent="Mozilla/5.0 (Macintosh; Intel Mac OS X 10_15_7) AppleWebKit/537.36 (KHTML, like Gecko) Chrome/116.0.0.0 Safari/537.36" version="21.7.2" etag="s6x65SgHMDmBMWudbFe0" type="github">
  <diagram name="Page-1" id="67bxx6ICDhTtdGV3Eazt">
    <mxGraphModel>
      <root>
        <mxCell id="0" />
        <mxCell id="1" parent="0" />
      </root>
    </mxGraphModel>
  </diagram>
</mxfile>
